# xmcd
#
# Track frame offsets:
#	150
#	15665
#	34715
#	46755
#	64180
#	88091
#	113405
#	131909
#	146266
#
# Disc length: 2166 seconds
#
# Revision: 0
# Processed by: cddbd v1.5.2PL0 Copyright (c) Steve Scherf et al.
# Submitted via: dBpowerAMP V4.0
#
DISCID=6f087409
DTITLE=Sassparilla - Magpie
DYEAR=2012
DGENRE=Americana
TTITLE0=Threadbare
TTITLE1=Star
TTITLE2=The Mary Celeste
TTITLE3=Two Black Hearts
TTITLE4=Buick
TTITLE5=You Took It All
TTITLE6=Broke Down Engine
TTITLE7=All the Way In
TTITLE8=The Man Who Howled Wolf
EXTD=
EXTT0=
EXTT1=
EXTT2=
EXTT3=
EXTT4=
EXTT5=
EXTT6=
EXTT7=
EXTT8=
PLAYORDER=
